<svg width="262" height="52" viewBox="0 0 262 52" fill="none" xmlns="http://www.w3.org/2000/svg">
<path fill-rule="evenodd" clip-rule="evenodd" d="M20.3754 29.981C20.0361 30.2753 19.5489 30.3244 19.1579 30.1043C17.4476 28.6816 17.1375 28.025 16.2076 26.6704C13.3755 29.5526 11.3735 30.4145 7.71178 30.4145C3.37458 30.4139 0 27.7369 0 22.3833C0 18.2017 2.27991 15.3604 5.4723 13.9648C8.26756 12.7381 12.1713 12.5145 15.1585 12.1772V11.5114C15.1585 10.2847 15.2542 8.83436 14.5336 7.77193C13.9041 6.82312 12.7097 6.43572 11.6421 6.43572C9.67645 6.43572 7.9257 7.44338 7.49684 9.5278C7.44259 10.014 7.06849 10.4029 6.58488 10.4766L1.63253 9.93414C1.38535 9.89883 1.16375 9.76372 1.01892 9.56004C0.874094 9.35687 0.818824 9.10304 0.866418 8.8579C2.01124 2.80168 7.48353 0.973145 12.3857 0.973145C14.8939 0.973145 18.1682 1.63895 20.1385 3.53606C22.642 5.87994 22.4184 9.00836 22.4184 12.406V20.4274C22.4184 22.8444 23.4214 23.9023 24.3656 25.2021C24.6942 25.6581 24.7669 26.2282 24.3656 26.5701C23.3124 27.4503 21.4424 29.0736 20.4163 29.9902L20.3754 29.981ZM15.1815 17.4218C15.1815 19.4284 15.227 21.1019 14.2194 22.8941C13.3985 24.3444 12.0986 25.238 10.6488 25.238C8.67441 25.238 7.52038 23.7329 7.52038 21.4985C7.52038 17.1116 11.4559 16.3133 15.1815 16.3133V17.4305V17.4218Z" fill="#5380EA" fill-opacity="0.6"/>
<path fill-rule="evenodd" clip-rule="evenodd" d="M34.4853 29.7804H29.3364C28.8589 29.7554 28.471 29.3853 28.4244 28.9094V2.45936C28.4418 1.92917 28.8794 1.51004 29.4096 1.51515H34.2115C34.7033 1.54228 35.0963 1.93531 35.1234 2.42712V5.87948H35.2191C36.4689 2.53664 38.8266 0.981898 42.0005 0.981898C45.1745 0.981898 47.2405 2.53715 48.6857 5.87948C49.6509 3.30684 51.9283 1.45477 54.6432 1.03461C57.3581 0.613937 60.0894 1.69018 61.7874 3.85034C63.4245 6.076 63.0873 9.32264 63.0873 12.1409V28.827C63.0827 29.0855 62.9747 29.3311 62.7884 29.5102C62.6016 29.6888 62.3519 29.7861 62.0934 29.7804H56.9446C56.4379 29.7538 56.0393 29.3388 56.0326 28.8316V14.8134C56.0326 13.7008 56.1283 10.9188 55.8868 9.86101C55.504 8.08263 54.3499 7.58059 52.8586 7.58059C51.4917 7.62256 50.2814 8.47413 49.7804 9.74689C49.2512 11.0877 49.2968 13.3088 49.2968 14.8134V28.8275C49.2922 29.085 49.1852 29.3301 48.9994 29.5092C48.8137 29.6878 48.5649 29.7855 48.307 29.7809H43.1454C42.6397 29.7523 42.2421 29.3383 42.2334 28.8321V14.8139C42.2334 11.8636 42.6894 7.51713 39.041 7.51713C35.3926 7.51713 35.4837 11.7443 35.4837 14.8139V28.828C35.4791 29.0865 35.3711 29.3321 35.1849 29.5113C34.9981 29.6899 34.7478 29.7871 34.4899 29.7815" fill="#5380EA" fill-opacity="0.6"/>
<path fill-rule="evenodd" clip-rule="evenodd" d="M91.8858 25.1832C90.9421 23.8833 89.9386 22.8255 89.9386 20.4131V12.387C89.9386 8.98483 90.1801 5.86102 87.6587 3.51714C85.6838 1.62003 82.4095 0.954224 79.9059 0.954224C75.0037 0.954224 69.5314 2.77815 68.382 8.83898C68.3334 9.08565 68.3882 9.34102 68.534 9.54573C68.6799 9.75043 68.9035 9.88554 69.1527 9.91983L74.1465 10.4577C74.6296 10.383 75.0027 9.99455 75.0585 9.50889C75.492 7.42498 77.234 6.4168 79.1992 6.4168C80.2616 6.4168 81.4796 6.80881 82.0907 7.75762C82.8158 8.81544 82.7201 10.2658 82.7201 11.4925V12.1445C79.733 12.4771 75.8251 12.7008 73.034 13.9275C69.8052 15.323 67.5386 18.1638 67.5386 22.3506C67.5386 27.7001 70.9132 30.3766 75.2499 30.3766C78.8983 30.3766 80.9136 29.5148 83.7411 26.6325C84.6807 28.0005 84.9862 28.6438 86.696 30.0665C87.087 30.285 87.5722 30.2379 87.9135 29.9477C88.9396 29.0358 90.8091 27.4079 91.8628 26.5276C92.3055 26.2139 92.2328 25.6576 91.8858 25.1832ZM81.7621 22.8711C80.9458 24.3168 79.6414 25.2103 78.1961 25.2103C76.2217 25.2103 75.0677 23.7052 75.0677 21.4755C75.0677 17.084 79.0032 16.2903 82.7288 16.2903V17.4029C82.7288 19.4146 82.7652 21.0835 81.7621 22.8711Z" fill="#5380EA" fill-opacity="0.6"/>
<path fill-rule="evenodd" clip-rule="evenodd" d="M96.2455 6.14866V2.36826C96.2337 2.11033 96.3315 1.85957 96.5147 1.67789C96.6979 1.49621 96.9497 1.40102 97.2076 1.41535H114.14C114.398 1.40665 114.648 1.50338 114.832 1.68352C115.016 1.86366 115.119 2.11084 115.116 2.36877V5.61131C115.116 6.15378 114.66 6.86565 113.844 7.98743L105.07 20.5098C108.326 20.4325 111.769 20.9202 114.728 22.585C115.275 22.8767 115.623 23.4386 115.64 24.0579V28.1075C115.64 28.6638 115.034 29.3065 114.391 28.9739C108.774 26.087 102.107 26.0988 96.5004 29.0056C95.9118 29.3204 95.2962 28.6863 95.2962 28.13V24.2764C95.2424 23.368 95.4615 22.4642 95.9256 21.6817L106.091 7.08878H97.2255C96.9671 7.09901 96.7163 7.00229 96.5311 6.82266C96.3458 6.64252 96.2424 6.39431 96.245 6.13587" fill="#5380EA" fill-opacity="0.6"/>
<path fill-rule="evenodd" clip-rule="evenodd" d="M129.737 6.34006C125.938 6.34006 125.697 11.5114 125.697 14.7402C125.697 17.9689 125.651 24.8639 129.687 24.8639C133.723 24.8639 133.873 19.3005 133.873 15.9075C133.873 13.6818 133.777 11.0099 133.102 8.89837C132.523 7.07444 131.369 6.34006 129.737 6.34006ZM129.687 0.94043C137.335 0.94043 141.471 7.5074 141.471 15.8527C141.471 23.9202 136.91 30.3183 129.687 30.3183C122.185 30.3183 118.099 23.7513 118.099 15.5749C118.099 7.39839 122.235 0.94043 129.687 0.94043Z" fill="#5380EA" fill-opacity="0.6"/>
<path fill-rule="evenodd" clip-rule="evenodd" d="M151.439 29.7256H146.304C145.798 29.699 145.398 29.284 145.392 28.7768V2.32678C145.447 1.82474 145.877 1.44808 146.382 1.46036H151.161C151.596 1.47418 151.97 1.77612 152.073 2.19884V6.24383H152.174C153.615 2.6277 155.635 0.903564 159.192 0.903564C161.5 0.903564 163.752 1.73825 165.207 4.01816C166.553 6.13431 166.553 9.69568 166.553 12.254V28.8945C166.478 29.3802 166.054 29.7349 165.563 29.7246H160.382C159.918 29.7047 159.534 29.3551 159.47 28.8945V14.5339C159.47 11.6424 159.808 7.41065 156.246 7.41065C154.924 7.47155 153.759 8.29856 153.264 9.5268C152.543 11.1409 152.448 12.7555 152.448 14.5431V28.7758C152.428 29.3126 151.981 29.7349 151.444 29.7246" fill="#5380EA" fill-opacity="0.6"/>
<path fill-rule="evenodd" clip-rule="evenodd" d="M193.358 5.47821C190.74 5.49869 188.199 6.37124 186.121 7.96385V23.0128C188.425 24.7456 190.801 25.6105 193.248 25.6075C198.216 25.6075 200.7 22.2631 200.7 15.5748C200.7 8.88606 198.253 5.51915 193.357 5.47361V5.47821H193.358ZM185.742 4.77556C187.036 3.63433 188.515 2.72134 190.115 2.07601C191.627 1.47366 193.24 1.16404 194.867 1.16404C196.485 1.13385 198.089 1.45779 199.569 2.11285C200.963 2.75204 202.184 3.71518 203.131 4.92192C204.161 6.25916 204.923 7.78269 205.374 9.40908C205.921 11.3369 206.185 13.3338 206.159 15.3374C206.184 17.3839 205.901 19.4223 205.319 21.3844C204.833 23.0497 204.036 24.6075 202.971 25.9764C201.982 27.2211 200.725 28.2277 199.295 28.9227C197.792 29.6202 196.15 29.9651 194.494 29.9303C191.397 29.9815 188.401 28.8382 186.125 26.7379V39.3975C186.169 39.6953 186.069 39.9962 185.856 40.2091C185.643 40.422 185.342 40.5218 185.044 40.4783H181.852C181.554 40.5218 181.253 40.422 181.04 40.2091C180.827 39.9962 180.728 39.6953 180.771 39.3975V3.04682C180.73 2.74949 180.83 2.44959 181.042 2.23721C181.255 2.02483 181.554 1.92452 181.852 1.96598H184.228C184.538 1.93681 184.846 2.03609 185.082 2.24028C185.317 2.44448 185.458 2.73567 185.473 3.04682L185.742 4.77556Z" fill="#5380EA" fill-opacity="0.6"/>
<path fill-rule="evenodd" clip-rule="evenodd" d="M219.63 26.0179C220.903 26.0015 222.163 25.7656 223.356 25.3199C224.694 24.8276 225.95 24.1357 227.081 23.2677V17.7545C226.145 17.5344 225.198 17.364 224.244 17.2437C223.287 17.1183 222.323 17.0544 221.358 17.0523C217.284 17.0523 215.248 18.6193 215.251 21.7539C215.251 23.1218 215.63 24.1756 216.387 24.914C217.145 25.653 218.225 26.021 219.63 26.0179ZM213.309 6.6727L212.903 6.80934C212.757 6.86154 212.603 6.88918 212.447 6.89123C211.991 6.89123 211.745 6.56728 211.745 5.91529V4.46956C211.71 4.10416 211.787 3.73722 211.964 3.41635C212.198 3.15484 212.494 2.95831 212.826 2.84623C214.198 2.28892 215.628 1.88975 217.09 1.65588C218.765 1.3524 220.464 1.19989 222.166 1.19989C225.586 1.19989 228.106 1.9005 229.727 3.30222C231.347 4.70394 232.159 6.88201 232.161 9.83694V28.2881C232.203 28.5854 232.103 28.8853 231.89 29.0977C231.678 29.3101 231.378 29.4104 231.081 29.369H228.755C228.459 29.3981 228.166 29.3045 227.942 29.1105C227.717 28.9166 227.583 28.6387 227.569 28.3429L227.295 26.5599C226.023 27.6622 224.572 28.5378 223.004 29.1499C221.517 29.7456 219.931 30.0552 218.33 30.0619C215.739 30.0619 213.687 29.3321 212.173 27.8731C210.659 26.4135 209.899 24.4606 209.893 22.0129C209.893 19.386 210.829 17.2882 212.702 15.7197C214.574 14.1511 217.095 13.3681 220.263 13.3712C222.559 13.4065 224.843 13.7125 227.067 14.2832V10.7351C227.067 8.78936 226.635 7.42141 225.772 6.63074C224.908 5.84006 223.395 5.44344 221.234 5.44037C218.548 5.46698 215.878 5.88203 213.309 6.6727Z" fill="#5380EA" fill-opacity="0.6"/>
<path fill-rule="evenodd" clip-rule="evenodd" d="M249.737 34.1534C248.761 36.637 247.635 38.4205 246.358 39.5029C245.081 40.5853 243.409 41.1247 241.342 41.1216C240.303 41.1354 239.267 41.008 238.263 40.7429C237.926 40.6708 237.622 40.4896 237.397 40.2276C237.192 39.8975 237.098 39.5111 237.128 39.1242V37.7194C237.128 37.0352 237.397 36.6933 237.939 36.6933C238.213 36.7056 238.484 36.7409 238.751 36.7982C239.232 36.8811 239.718 36.918 240.206 36.9077C241.352 36.9799 242.486 36.635 243.398 35.9364C244.155 35.289 244.84 34.1002 245.451 32.3704L246.477 29.634L236.07 3.90917C235.874 3.49976 235.748 3.06015 235.696 2.60928C235.696 2.18042 235.947 1.9619 236.448 1.9619H239.691C240.106 1.92198 240.523 2.01615 240.881 2.23109C241.186 2.57192 241.406 2.97929 241.524 3.42145L249.089 24.3762L256.386 3.42145C256.504 2.9798 256.724 2.57192 257.029 2.23109C257.387 2.01666 257.804 1.92198 258.22 1.9619H261.243C261.749 1.9619 262 2.18093 262 2.60928C261.946 3.06015 261.818 3.49924 261.621 3.90917L249.737 34.1534Z" fill="#5380EA" fill-opacity="0.6"/>
<path fill-rule="evenodd" clip-rule="evenodd" d="M103.232 40.1503C93.5598 47.2874 79.5185 51.0949 67.4608 51.0949C51.33 51.1773 35.7498 45.2332 23.773 34.4267C22.861 33.6105 23.6727 32.4933 24.7627 33.1269C37.2032 40.3642 52.5807 44.7239 68.4782 44.7239C79.9366 44.6615 91.2702 42.3366 101.828 37.8837C103.46 37.1903 104.833 38.96 103.233 40.1636M107.254 35.5715C108.495 37.1539 105.886 43.6846 104.714 46.5985C104.359 47.4788 105.12 47.8345 105.918 47.1687C111.104 42.8274 112.444 33.7338 111.391 32.4206C110.337 31.1074 101.267 29.9943 95.7307 33.8843C94.8781 34.4815 95.0239 35.307 95.9723 35.1928C99.0869 34.8187 106.028 33.9846 107.264 35.5715" fill="#5380EA" fill-opacity="0.6"/>
</svg>
