<svg width="81" height="82" viewBox="0 0 81 82" fill="none" xmlns="http://www.w3.org/2000/svg">
<path d="M81 41.0737C81 61.2889 66.189 78.0442 46.8281 81.0817V52.7808H56.2649L58.0605 41.0737H46.8281V33.4768C46.8281 30.2732 48.3975 27.1519 53.4284 27.1519H58.5352V17.1851C58.5352 17.1851 53.8998 16.394 49.4685 16.394C40.2184 16.394 34.1719 22.0008 34.1719 32.1511V41.0737H23.8887V52.7808H34.1719V81.0817C14.811 78.0442 0 61.2889 0 41.0737C0 18.707 18.1332 0.57373 40.5 0.57373C62.8668 0.57373 81 18.707 81 41.0737Z" fill="#5380EA" fill-opacity="0.6"/>
<path d="M56.2649 52.7808L58.0605 41.0737H46.8281V33.4767C46.8281 30.2738 48.3972 27.1519 53.4282 27.1519H58.5352V17.1851C58.5352 17.1851 53.9004 16.394 49.4693 16.394C40.2182 16.394 34.1719 22.0008 34.1719 32.1511V41.0737H23.8887V52.7808H34.1719V81.0816C36.2339 81.4051 38.3472 81.5737 40.5 81.5737C42.6528 81.5737 44.7661 81.4051 46.8281 81.0816V52.7808H56.2649Z" fill="white"/>
</svg>
