<svg width="265" height="105" viewBox="0 0 265 105" fill="none" xmlns="http://www.w3.org/2000/svg">
<path fill-rule="evenodd" clip-rule="evenodd" d="M249.969 42.1072V48.7907H227.912V42.4411L225.64 48.7907H206.324L208.596 42.1072H249.969Z" fill="#5380EA" fill-opacity="0.6"/>
<path d="M51.4643 98.3165H0V105H51.4643V98.3165Z" fill="#5380EA" fill-opacity="0.6"/>
<path fill-rule="evenodd" clip-rule="evenodd" d="M131.133 98.3165C126.254 102.46 119.905 105 112.954 105H58.8162V98.3165H131.133Z" fill="#5380EA" fill-opacity="0.6"/>
<path d="M183.8 98.2498H147.04V104.933H183.8V98.2498Z" fill="#5380EA" fill-opacity="0.6"/>
<path d="M264.672 98.2498H227.912V104.933H264.672V98.2498Z" fill="#5380EA" fill-opacity="0.6"/>
<path fill-rule="evenodd" clip-rule="evenodd" d="M208.195 98.2498L205.856 104.867L203.517 98.2498H208.195Z" fill="#5380EA" fill-opacity="0.6"/>
<path fill-rule="evenodd" clip-rule="evenodd" d="M140.089 84.2811C139.421 86.6202 138.485 88.8927 137.282 90.9646H58.8162V84.2811H140.089Z" fill="#5380EA" fill-opacity="0.6"/>
<path d="M51.4643 84.2811H0V90.9646H51.4643V84.2811Z" fill="#5380EA" fill-opacity="0.6"/>
<path d="M183.8 84.2139H147.04V90.8974H183.8V84.2139Z" fill="#5380EA" fill-opacity="0.6"/>
<path d="M264.672 84.2139H227.912V90.8974H264.672V84.2139Z" fill="#5380EA" fill-opacity="0.6"/>
<path fill-rule="evenodd" clip-rule="evenodd" d="M213.141 84.2139L210.802 90.8979H200.911L198.571 84.2139H213.141Z" fill="#5380EA" fill-opacity="0.6"/>
<path d="M36.76 70.2452H14.7038V76.9287H36.76V70.2452Z" fill="#5380EA" fill-opacity="0.6"/>
<path d="M95.5763 70.2452H73.5201V76.9287H95.5763V70.2452Z" fill="#5380EA" fill-opacity="0.6"/>
<path fill-rule="evenodd" clip-rule="evenodd" d="M140.223 70.2452C140.758 72.3838 141.025 74.6562 141.025 76.9287H117.632V70.2452H140.223Z" fill="#5380EA" fill-opacity="0.6"/>
<path d="M183.801 70.1785H161.744V76.862H183.801V70.1785Z" fill="#5380EA" fill-opacity="0.6"/>
<path d="M249.969 70.1785H227.912V76.862H249.969V70.1785Z" fill="#5380EA" fill-opacity="0.6"/>
<path fill-rule="evenodd" clip-rule="evenodd" d="M218.087 70.1785L215.748 76.862H195.965L193.625 70.1785H218.087Z" fill="#5380EA" fill-opacity="0.6"/>
<path d="M36.76 56.2098H14.7038V62.8933H36.76V56.2098Z" fill="#5380EA" fill-opacity="0.6"/>
<path fill-rule="evenodd" clip-rule="evenodd" d="M131.868 56.2098C134.007 58.0811 135.812 60.3536 137.282 62.8933H73.5201V56.2098H131.868Z" fill="#5380EA" fill-opacity="0.6"/>
<path d="M183.801 56.1426H161.744V62.8261H183.801V56.1426Z" fill="#5380EA" fill-opacity="0.6"/>
<path d="M249.969 56.1426H227.912V62.8261H249.969V56.1426Z" fill="#5380EA" fill-opacity="0.6"/>
<path fill-rule="evenodd" clip-rule="evenodd" d="M223.1 56.1426L220.694 62.8266H191.019L188.613 56.1426H223.1Z" fill="#5380EA" fill-opacity="0.6"/>
<path d="M36.76 42.1739H14.7038V48.8574H36.76V42.1739Z" fill="#5380EA" fill-opacity="0.6"/>
<path fill-rule="evenodd" clip-rule="evenodd" d="M137.282 42.1739C135.812 44.6469 134.008 46.9194 131.868 48.8574H73.5201V42.1739H137.282Z" fill="#5380EA" fill-opacity="0.6"/>
<path fill-rule="evenodd" clip-rule="evenodd" d="M203.116 42.1072L205.388 48.7907H186.073L183.801 42.4411V48.7907H161.744V42.1072H203.116Z" fill="#5380EA" fill-opacity="0.6"/>
<path d="M36.76 28.1385H14.7038V34.822H36.76V28.1385Z" fill="#5380EA" fill-opacity="0.6"/>
<path d="M95.5763 28.1385H73.5201V34.822H95.5763V28.1385Z" fill="#5380EA" fill-opacity="0.6"/>
<path fill-rule="evenodd" clip-rule="evenodd" d="M141.025 28.1385C141.025 30.411 140.758 32.6834 140.223 34.822H117.632V28.1385H141.025Z" fill="#5380EA" fill-opacity="0.6"/>
<path fill-rule="evenodd" clip-rule="evenodd" d="M249.969 28.0713V34.7553H211.203L213.476 28.0713H249.969Z" fill="#5380EA" fill-opacity="0.6"/>
<path fill-rule="evenodd" clip-rule="evenodd" d="M198.237 28.0713L200.51 34.7553H161.744V28.0713H198.237Z" fill="#5380EA" fill-opacity="0.6"/>
<path d="M51.4643 14.1026H0V20.7861H51.4643V14.1026Z" fill="#5380EA" fill-opacity="0.6"/>
<path fill-rule="evenodd" clip-rule="evenodd" d="M137.215 14.1026C138.418 16.1745 139.354 18.4469 140.022 20.7861H58.8162V14.1026H137.215Z" fill="#5380EA" fill-opacity="0.6"/>
<path fill-rule="evenodd" clip-rule="evenodd" d="M264.672 14.0359V20.7194H216.016L218.355 14.0359H264.672Z" fill="#5380EA" fill-opacity="0.6"/>
<path fill-rule="evenodd" clip-rule="evenodd" d="M193.358 14.0359L195.697 20.7194H147.04V14.0359H193.358Z" fill="#5380EA" fill-opacity="0.6"/>
<path d="M51.4643 0.0671997H0V6.75069H51.4643V0.0671997Z" fill="#5380EA" fill-opacity="0.6"/>
<path fill-rule="evenodd" clip-rule="evenodd" d="M112.954 0.0671997L113.671 0.0759868C120.341 0.243992 126.422 2.74959 131.133 6.75069H58.8162V0.0671997H112.954Z" fill="#5380EA" fill-opacity="0.6"/>
<path fill-rule="evenodd" clip-rule="evenodd" d="M264.672 0V6.68401H220.895L223.234 0H264.672Z" fill="#5380EA" fill-opacity="0.6"/>
<path fill-rule="evenodd" clip-rule="evenodd" d="M188.479 0L190.818 6.68401H147.04V0H188.479Z" fill="#5380EA" fill-opacity="0.6"/>
</svg>
