<svg width="68" height="79" viewBox="0 0 68 79" fill="none" xmlns="http://www.w3.org/2000/svg">
<path d="M60.3432 20.0714C60.3432 20.0714 58.4873 21.0601 58.3886 21.5545C55.2245 38.1653 45.8089 42.7225 31.6699 42.7225L24.4522 42.6083C22.6725 42.6083 20.2394 45.0865 19.9429 46.7672L16.212 68.4897L17.2343 70.2003L16.2456 76.9236C16.0478 77.9123 16.74 78.9011 17.8276 79C17.9265 79 18.0254 79 18.1242 79H30.8788C32.3619 79 33.6472 77.9123 33.9439 76.4292L34.0428 75.7371C34.0428 75.7371 36.4125 60.5317 36.4158 60.5106C36.6941 58.7252 37.6798 57.1489 39.6785 57.1489H41.5571C53.9163 57.1489 63.606 52.1063 66.4733 37.5719C67.6598 31.5406 67.0665 26.3991 63.9025 22.8398C62.9139 21.6532 61.7274 20.7634 60.3432 20.0714Z" fill="#5380EA" fill-opacity="0.6"/>
<path d="M57.2369 16.8586C54.1217 15.8542 50.7387 15.7221 47.4897 15.7221H28.2094C26.7263 15.7221 24.1322 17.6732 23.8355 19.1563L19.4658 45.9763L20.9915 46.7672C21.2881 45.0863 22.7712 43.801 24.4521 43.801H31.6698C45.8088 43.801 56.8203 38.0862 60.0831 21.4753C60.182 20.981 60.242 20.6102 60.3431 20.0714C60.3431 20.0714 59.3076 17.7415 58.4627 17.3109C58.0697 17.1453 57.6585 16.9946 57.2369 16.8586Z" fill="#192A67"/>
<path d="M25.2432 20.1702C25.441 18.687 26.7263 17.5994 28.3083 17.5994H47.4897C49.7637 17.5994 51.939 17.7972 53.8176 18.0938C55.1029 18.2916 56.3883 18.5881 57.6736 18.9836C58.6623 19.2802 59.5522 19.6758 60.3432 20.0712C61.332 13.941 60.3432 9.78844 56.9816 5.93225C53.4221 1.77966 46.7975 0 38.2944 0H13.7738C12.0929 0 10.6098 1.28529 10.3133 2.9662L0.0302982 67.8272C-0.16751 69.0138 0.62357 70.1012 1.80996 70.2001C1.90886 70.2001 2.00777 70.2001 2.10652 70.2001H17.2342L21.0903 46.0751L25.2432 20.1702Z" fill="#0A3B82"/>
</svg>
